<svg xmlns="http://www.w3.org/2000/svg" xmlns:xlink="http://www.w3.org/1999/xlink" contentStyleType="text/css" data-diagram-type="DESCRIPTION" height="533px" preserveAspectRatio="none" style="width:1943px;height:533px;background:#FFFFFF;" version="1.1" viewBox="0 0 1943 533" width="1943px" zoomAndPan="magnify"><title>Diagrama de Caso de Uso - Guardi&#227;o Veicular</title><defs/><g><g class="title" data-source-line="2"><text fill="#000000" font-family="sans-serif" font-size="14" font-weight="bold" lengthAdjust="spacing" textLength="358.4697" x="785.6086" y="22.9951">Diagrama de Caso de Uso - Guardi&#227;o Veicular</text></g><!--cluster Plataforma Guardi?o Veicular--><g class="cluster" data-entity="Plataforma Guardi.o Veicular" data-source-line="14" data-uid="ent0005" id="cluster_Plataforma Guardi.o Veicular"><rect fill="none" height="238.5" rx="2.5" ry="2.5" style="stroke:#181818;stroke-width:1;" width="1880" x="7" y="166.0969"/><text fill="#000000" font-family="sans-serif" font-size="14" font-weight="bold" lengthAdjust="spacing" textLength="233.2832" x="830.3584" y="181.092">Plataforma Guardi&#227;o Veicular</text></g><!--entity UC1--><g class="entity" data-entity="UC1" data-source-line="19" data-uid="ent0006" id="entity_UC1"><ellipse cx="1304.9952" cy="230.9119" fill="#F1F1F1" rx="63.5752" ry="15.115" style="stroke:#181818;stroke-width:0.5;"/><text fill="#000000" font-family="sans-serif" font-size="14" lengthAdjust="spacing" textLength="89.6533" x="1260.1685" y="235.5604">Cadastrar-se</text></g><!--entity UC2--><g class="entity" data-entity="UC2" data-source-line="20" data-uid="ent0007" id="entity_UC2"><ellipse cx="88.0036" cy="230.9216" fill="#F1F1F1" rx="65.1236" ry="15.4247" style="stroke:#181818;stroke-width:0.5;"/><text fill="#000000" font-family="sans-serif" font-size="14" lengthAdjust="spacing" textLength="93.7959" x="41.1057" y="235.57">Autenticar-se</text></g><!--entity UC3--><g class="entity" data-entity="UC3" data-source-line="21" data-uid="ent0008" id="entity_UC3"><ellipse cx="98.9972" cy="363.1663" fill="#F1F1F1" rx="75.8472" ry="17.5694" style="stroke:#181818;stroke-width:0.5;"/><text fill="#000000" font-family="sans-serif" font-size="14" lengthAdjust="spacing" textLength="120.7773" x="38.6085" y="367.8148">Recuperar Senha</text></g><!--entity UC4--><g class="entity" data-entity="UC4" data-source-line="22" data-uid="ent0009" id="entity_UC4"><ellipse cx="312.9986" cy="363.1646" fill="#F1F1F1" rx="102.6886" ry="22.9377" style="stroke:#181818;stroke-width:0.5;"/><text fill="#000000" font-family="sans-serif" font-size="14" lengthAdjust="spacing" textLength="181.9658" x="222.0157" y="367.813">Autenticar-se com Google</text></g><!--entity UC5--><g class="entity" data-entity="UC5" data-source-line="25" data-uid="ent0010" id="entity_UC5"><ellipse cx="267.9994" cy="230.9148" fill="#F1F1F1" rx="80.3394" ry="18.4679" style="stroke:#181818;stroke-width:0.5;"/><text fill="#000000" font-family="sans-serif" font-size="14" lengthAdjust="spacing" textLength="131.4756" x="202.2616" y="235.5632">Gerenciar Ve&#237;culos</text></g><!--entity UC6--><g class="entity" data-entity="UC6" data-source-line="26" data-uid="ent0011" id="entity_UC6"><ellipse cx="712.0014" cy="363.1671" fill="#F1F1F1" rx="76.0514" ry="17.6103" style="stroke:#181818;stroke-width:0.5;"/><text fill="#000000" font-family="sans-serif" font-size="14" lengthAdjust="spacing" textLength="121.2695" x="651.3666" y="367.8156">Adicionar Ve&#237;culo</text></g><!--entity UC7--><g class="entity" data-entity="UC7" data-source-line="27" data-uid="ent0012" id="entity_UC7"><ellipse cx="889.0025" cy="363.1654" fill="#F1F1F1" rx="66.3425" ry="15.6685" style="stroke:#181818;stroke-width:0.5;"/><text fill="#000000" font-family="sans-serif" font-size="14" lengthAdjust="spacing" textLength="97.002" x="840.5015" y="367.8138">Editar Ve&#237;culo</text></g><!--entity UC8--><g class="entity" data-entity="UC8" data-source-line="28" data-uid="ent0013" id="entity_UC8"><ellipse cx="526.0008" cy="363.169" fill="#F1F1F1" rx="75.0108" ry="17.4022" style="stroke:#181818;stroke-width:0.5;"/><text fill="#000000" font-family="sans-serif" font-size="14" lengthAdjust="spacing" textLength="118.7539" x="466.6238" y="367.8175">Remover Ve&#237;culo</text></g><!--entity UC9--><g class="entity" data-entity="UC9" data-source-line="31" data-uid="ent0014" id="entity_UC9"><ellipse cx="512.0046" cy="230.9218" fill="#F1F1F1" rx="128.6746" ry="28.1349" style="stroke:#181818;stroke-width:0.5;"/><text fill="#000000" font-family="sans-serif" font-size="14" lengthAdjust="spacing" textLength="237.7744" x="393.1173" y="235.5702">Monitorar Ve&#237;culo em Tempo Real</text></g><!--entity UC10--><g class="entity" data-entity="UC10" data-source-line="32" data-uid="ent0015" id="entity_UC10"><ellipse cx="785.9952" cy="230.9159" fill="#F1F1F1" rx="110.6452" ry="24.529" style="stroke:#181818;stroke-width:0.5;"/><text fill="#000000" font-family="sans-serif" font-size="14" lengthAdjust="spacing" textLength="199.2744" x="686.358" y="235.5644">Consultar Hist&#243;rico de Rotas</text></g><!--entity UC11--><g class="entity" data-entity="UC11" data-source-line="35" data-uid="ent0016" id="entity_UC11"><ellipse cx="1068.9992" cy="230.9167" fill="#F1F1F1" rx="137.0992" ry="29.8198" style="stroke:#181818;stroke-width:0.5;"/><text fill="#000000" font-family="sans-serif" font-size="14" lengthAdjust="spacing" textLength="255.5205" x="941.239" y="235.5652">Gerenciar Alarme (Armar/Desarmar)</text></g><!--entity UC12--><g class="entity" data-entity="UC12" data-source-line="36" data-uid="ent0017" id="entity_UC12"><ellipse cx="1633.9987" cy="363.1706" fill="#F1F1F1" rx="115.1687" ry="25.4337" style="stroke:#181818;stroke-width:0.5;"/><text fill="#000000" font-family="sans-serif" font-size="14" lengthAdjust="spacing" textLength="209.0156" x="1529.4908" y="367.819">Receber Notifica&#231;&#227;o de Alerta</text></g><!--entity UC13--><g class="entity" data-entity="UC13" data-source-line="39" data-uid="ent0018" id="entity_UC13"><ellipse cx="1761.9959" cy="230.9141" fill="#F1F1F1" rx="108.5859" ry="24.1172" style="stroke:#181818;stroke-width:0.5;"/><text fill="#000000" font-family="sans-serif" font-size="14" lengthAdjust="spacing" textLength="194.8174" x="1664.5872" y="235.5625">Enviar Dados de Telemetria</text></g><!--entity UC14--><g class="entity" data-entity="UC14" data-source-line="40" data-uid="ent0019" id="entity_UC14"><ellipse cx="1511.0023" cy="230.9193" fill="#F1F1F1" rx="107.1623" ry="23.8325" style="stroke:#181818;stroke-width:0.5;"/><text fill="#000000" font-family="sans-serif" font-size="14" lengthAdjust="spacing" textLength="191.7275" x="1415.1385" y="235.5678">Enviar Alerta de Seguran&#231;a</text></g><!--entity user--><g class="entity" data-entity="user" data-source-line="7" data-uid="ent0002" id="entity_user"><ellipse cx="786.0021" cy="51.2969" fill="#F1F1F1" rx="8" ry="8" style="stroke:#181818;stroke-width:0.5;"/><path d="M786.0021,59.2969 L786.0021,86.2969 M773.0021,67.2969 L799.0021,67.2969 M786.0021,86.2969 L773.0021,101.2969 M786.0021,86.2969 L799.0021,101.2969" fill="none" style="stroke:#181818;stroke-width:0.5;"/><text fill="#000000" font-family="sans-serif" font-size="14" lengthAdjust="spacing" textLength="53.2041" x="759.4" y="115.792">Usu&#225;rio</text></g><!--entity hardware--><g class="entity" data-entity="hardware" data-source-line="10" data-uid="ent0003" id="entity_hardware"><ellipse cx="1850.9985" cy="51.2969" fill="#F1F1F1" rx="8" ry="8" style="stroke:#181818;stroke-width:0.5;"/><path d="M1850.9985,59.2969 L1850.9985,86.2969 M1837.9985,67.2969 L1863.9985,67.2969 M1850.9985,86.2969 L1837.9985,101.2969 M1850.9985,86.2969 L1863.9985,101.2969" fill="none" style="stroke:#181818;stroke-width:0.5;"/><text fill="#000000" font-family="sans-serif" font-size="14" lengthAdjust="spacing" textLength="171.377" x="1765.31" y="115.792">Dispositivo de Hardware</text></g><!--entity google--><g class="entity" data-entity="google" data-source-line="11" data-uid="ent0004" id="entity_google"><ellipse cx="313.0045" cy="460.0969" fill="#F1F1F1" rx="8" ry="8" style="stroke:#181818;stroke-width:0.5;"/><path d="M313.0045,468.0969 L313.0045,495.0969 M300.0045,476.0969 L326.0045,476.0969 M313.0045,495.0969 L300.0045,510.0969 M313.0045,495.0969 L326.0045,510.0969" fill="none" style="stroke:#181818;stroke-width:0.5;"/><text fill="#000000" font-family="sans-serif" font-size="14" lengthAdjust="spacing" textLength="110.209" x="257.9" y="524.592">Sistema Google</text></g><!--link user to UC1--><g class="link" data-entity-1="user" data-entity-2="UC1" data-source-line="46" data-uid="lnk20" id="link_user_UC1"><path d="M812.95,81.6269 C883.95,81.8169 1080.57,89.0269 1224,158.0969 C1252.79,171.9569 1279.06,199.0769 1293.46,215.7369" fill="none" id="user-UC1" style="stroke:#181818;stroke-width:1;"/></g><!--link user to UC2--><g class="link" data-entity-1="user" data-entity-2="UC2" data-source-line="47" data-uid="lnk21" id="link_user_UC2"><path d="M758.94,83.1769 C654.5,88.2769 278.05,109.6869 170,158.0969 C140.64,171.2469 114.11,198.5969 99.6,215.4969" fill="none" id="user-UC2" style="stroke:#181818;stroke-width:1;"/></g><!--link user to UC5--><g class="link" data-entity-1="user" data-entity-2="UC5" data-source-line="48" data-uid="lnk22" id="link_user_UC5"><path d="M759,82.6769 C690.48,85.3969 505.4,98.1869 366,158.0969 C335.19,171.3369 304.84,195.8369 286.28,212.4969" fill="none" id="user-UC5" style="stroke:#181818;stroke-width:1;"/></g><!--link user to UC9--><g class="link" data-entity-1="user" data-entity-2="UC9" data-source-line="49" data-uid="lnk23" id="link_user_UC9"><path d="M759.23,96.3969 C712.91,121.4169 617.23,173.0869 559.42,204.3069" fill="none" id="user-UC9" style="stroke:#181818;stroke-width:1;"/></g><!--link user to UC10--><g class="link" data-entity-1="user" data-entity-2="UC10" data-source-line="50" data-uid="lnk24" id="link_user_UC10"><path d="M786,119.2869 C786,146.5069 786,182.5869 786,206.0269" fill="none" id="user-UC10" style="stroke:#181818;stroke-width:1;"/></g><!--link user to UC11--><g class="link" data-entity-1="user" data-entity-2="UC11" data-source-line="51" data-uid="lnk25" id="link_user_UC11"><path d="M812.88,95.9969 C859.72,120.4869 957.05,171.3769 1017.32,202.8969" fill="none" id="user-UC11" style="stroke:#181818;stroke-width:1;"/></g><!--reverse link UC2 to UC3--><g class="link" data-entity-1="UC2" data-entity-2="UC3" data-source-line="55" data-uid="lnk26" id="link_UC2_UC3"><path d="M89.7456,252.5755 C91.8056,276.9355 95.4,319.5469 97.57,345.2769" fill="none" id="UC2-backto-UC3" style="stroke:#181818;stroke-width:1;stroke-dasharray:7,7;"/><polygon fill="#181818" points="89.24,246.5969,86.0126,255.9019,89.6613,251.5791,93.9842,255.2278,89.24,246.5969" style="stroke:#181818;stroke-width:1;"/><text fill="#000000" font-family="sans-serif" font-size="13" lengthAdjust="spacing" textLength="61.1851" x="96" y="303.8038">&#171;extend&#187;</text></g><!--reverse link UC2 to UC4--><g class="link" data-entity-1="UC2" data-entity-2="UC4" data-source-line="56" data-uid="lnk27" id="link_UC2_UC4"><path d="M116.8427,248.6128 C156.3327,271.4728 230.73,314.5369 277.14,341.4069" fill="none" id="UC2-backto-UC4" style="stroke:#181818;stroke-width:1;stroke-dasharray:7,7;"/><polygon fill="#181818" points="111.65,245.6069,117.4351,253.5776,115.9773,248.1118,121.443,246.654,111.65,245.6069" style="stroke:#181818;stroke-width:1;"/><text fill="#000000" font-family="sans-serif" font-size="13" lengthAdjust="spacing" textLength="61.1851" x="215" y="303.8038">&#171;extend&#187;</text></g><!--link UC4 to google--><g class="link" data-entity-1="UC4" data-entity-2="google" data-source-line="59" data-uid="lnk28" id="link_UC4_google"><path d="M313,386.4369 C313,404.4969 313,430.3369 313,451.5269" fill="none" id="UC4-google" style="stroke:#181818;stroke-width:1;"/></g><!--reverse link UC5 to UC6--><g class="link" data-entity-1="UC5" data-entity-2="UC6" data-source-line="63" data-uid="lnk29" id="link_UC5_UC6"><path d="M321.0139,247.8776 C337.0839,252.6276 349.41,256.1669 366,260.7369 C417.76,274.9769 431.36,276.0669 483,290.7369 C548.5,309.3369 623.74,333.3169 669.57,348.2169" fill="none" id="UC5-backto-UC6" style="stroke:#181818;stroke-width:1;stroke-dasharray:7,7;"/><polygon fill="#181818" points="315.26,246.1769,322.757,252.5639,320.0549,247.5942,325.0247,244.8921,315.26,246.1769" style="stroke:#181818;stroke-width:1;"/><text fill="#000000" font-family="sans-serif" font-size="13" lengthAdjust="spacing" textLength="61.1851" x="540" y="303.8038">&#171;extend&#187;</text></g><!--reverse link UC5 to UC7--><g class="link" data-entity-1="UC5" data-entity-2="UC7" data-source-line="64" data-uid="lnk30" id="link_UC5_UC7"><path d="M318.2285,248.4188 C334.8685,253.4988 348.29,257.0669 366,260.7369 C472.99,282.8869 502.48,271.2969 610,290.7369 C698.15,306.6669 719.45,314.6269 806,337.7369 C820.37,341.5669 836.04,346.0869 849.85,350.1969" fill="none" id="UC5-backto-UC7" style="stroke:#181818;stroke-width:1;stroke-dasharray:7,7;"/><polygon fill="#181818" points="312.49,246.6669,319.9299,253.1204,317.2721,248.1268,322.2657,245.469,312.49,246.6669" style="stroke:#181818;stroke-width:1;"/><text fill="#000000" font-family="sans-serif" font-size="13" lengthAdjust="spacing" textLength="61.1851" x="693" y="303.8038">&#171;extend&#187;</text></g><!--reverse link UC5 to UC8--><g class="link" data-entity-1="UC5" data-entity-2="UC8" data-source-line="65" data-uid="lnk31" id="link_UC5_UC8"><path d="M305.7661,250.981 C356.1161,276.401 447.03,322.2969 495.92,346.9769" fill="none" id="UC5-backto-UC8" style="stroke:#181818;stroke-width:1;stroke-dasharray:7,7;"/><polygon fill="#181818" points="300.41,248.2769,306.6414,255.9038,304.8734,250.5303,310.2469,248.7623,300.41,248.2769" style="stroke:#181818;stroke-width:1;"/><text fill="#000000" font-family="sans-serif" font-size="13" lengthAdjust="spacing" textLength="61.1851" x="413" y="303.8038">&#171;extend&#187;</text></g><!--link hardware to UC13--><g class="link" data-entity-1="hardware" data-entity-2="UC13" data-source-line="68" data-uid="lnk32" id="link_hardware_UC13"><path d="M1828.54,119.2869 C1811.96,146.8469 1789.92,183.4969 1775.84,206.9069" fill="none" id="hardware-UC13" style="stroke:#181818;stroke-width:1;"/></g><!--link hardware to UC14--><g class="link" data-entity-1="hardware" data-entity-2="UC14" data-source-line="69" data-uid="lnk33" id="link_hardware_UC14"><path d="M1764.83,108.4869 C1724.96,121.7669 1677.37,139.0669 1636,158.0969 C1604.28,172.6769 1570.01,192.6969 1545.39,207.8869" fill="none" id="hardware-UC14" style="stroke:#181818;stroke-width:1;"/></g><!--link UC14 to UC12--><g class="link" data-entity-1="UC14" data-entity-2="UC12" data-source-line="73" data-uid="lnk34" id="link_UC14_UC12"><path d="M1532.42,254.5969 C1554.45,277.9269 1584.5007,309.7444 1607.0307,333.6044" fill="none" id="UC14-to-UC12" style="stroke:#181818;stroke-width:1;stroke-dasharray:7,7;"/><polygon fill="#181818" points="1611.15,337.9669,1607.8794,328.6769,1607.7172,334.3315,1602.0627,334.1694,1611.15,337.9669" style="stroke:#181818;stroke-width:1;"/><text fill="#000000" font-family="sans-serif" font-size="13" lengthAdjust="spacing" textLength="66.5806" x="1580" y="303.8038">&#171;triggers&#187;</text></g><!--link UC12 to user--><g class="link" data-entity-1="UC12" data-entity-2="user" data-source-line="76" data-uid="lnk35" id="link_UC12_user"><path d="M1732.86,349.7769 C1788.42,337.1969 1853.38,311.8369 1888,260.7369 C1913.59,222.9669 1919.12,191.4469 1888,158.0969 C1850.12,117.4969 978.65,88.0269 813.04,82.7769" fill="none" id="UC12-user" style="stroke:#181818;stroke-width:1;"/></g><!--SRC=[VLNDJjj04BxxAKPSI2GI28I_2Y550K6bKghmSv_QGrXXUztTDMrLzLrQzO1wu8Jw17wnpgwzZkq4SickvzjlvvkTdtMuBfvD7il021CJd0YSAqmG8e8fQcd_R_Xl06SvgaWKVoJSaWZp65MW7qIQ8SCXm_01vtHblZE7ej1WEeyf2DPXC1Z0n4X5sYxvWzr0faGQYWnZwDtelFYjXEn3yGj8Vyb9HHXWQ67U1gWXrwI2wZoJQGhpD79MlKdV3AbKQaiH2KN2U8Qr4w4pgOKHZqxBEOluYehMBELzjV7OAw4DiVOpATbx1vcxfHVoGIJ244GIFDHgglN2sgSO3Tv9PKcMuhK6Fu80-5UIsV3gEhxCKzakYfU87yHQ9hcXr8WGYoScSdOEGuYQhvfYXDeeL0DTkdep7RKHzUa6PBiDcN4KCs8IkABq7YlGpXiy4Cga6Q2RwNY5usUaZPNEorigdbc-r6tICrB4AS0tru2ARxTpUoH28TC6iCBjjN6d4R_w4cY_gpUHZxI4EbWXuKAcWhC24zRU2RqtBNY04hYc99Cm8umhriFEWybKvx7ryPoJftXH8dGNpQH1htsqjSAJAvhd2jFY2LyBuOIpAo7eJJZnrEO9QRIBlYSTBJqwVUOWV9H6tFdaSkaMap8-2KRRtfLMeegKdmCZ_f0Hk-VhgVCMwQDrwyJX-E0rnPIGKQ8ctrbve7IWhTcV60S_VHdEA4QN4-vjoiR2flSfTm6hvX_t1wvHtpq2speOv2faiTvkh7SRwyCcVgkv6TbRxEN-Zcw5Gk-KEr4QzMsVugQeZ53MaqufRe1awLLhooJJoCpcHSPDIDKLYTpZk2P1vWpclQpARXYmxt0q7DfAXNTmT4JkqkFZXc7SDYpyPYTj1Vl-TLfspi2UO96BTjUMkQgUNnMxghJVaeo-mZU0oY9coQgiL2jsjzAqrnNh3Vkl6GwMej3DaJf__Ioeddgd-s7SZk5vRJrUJAdUjHBpEQbDNrc6PTdmNDQZ1iXcEkG9O9dhFSlTtm2UUpowj1sd72fTFO_RfXMRQiRGdjlks_2CnZ0S7hkATN9DwOGk1LykZXH_cO3pYp8tWb5hDnGN5vHJnX6nQ9lu_m40]--></g></svg>