<svg xmlns="http://www.w3.org/2000/svg" xmlns:xlink="http://www.w3.org/1999/xlink" contentStyleType="text/css" data-diagram-type="STATE" height="903px" preserveAspectRatio="none" style="width:865px;height:903px;background:#FFFFFF;" version="1.1" viewBox="0 0 865 903" width="865px" zoomAndPan="magnify"><title>Diagrama de M&#225;quina de Estados - Status do Ve&#237;culo (Vis&#227;o do Software)</title><defs/><g><g class="title" data-source-line="9"><text fill="#000000" font-family="sans-serif" font-size="14" font-weight="bold" lengthAdjust="spacing" textLength="579.7217" x="135.7844" y="22.9951">Diagrama de M&#225;quina de Estados - Status do Ve&#237;culo (Vis&#227;o do Software)</text></g><g id="Desconectado"><rect fill="#FFFFE0" height="64.2344" rx="12.5" ry="12.5" style="stroke:#FF0000;stroke-width:0.5;" width="216.4414" x="294.57" y="124.2969"/><line style="stroke:#FF0000;stroke-width:0.5;" x1="294.57" x2="511.0114" y1="150.5938" y2="150.5938"/><text fill="#000000" font-family="Helvetica" font-size="14" lengthAdjust="spacing" textLength="159.4141" x="323.0837" y="142.292">Desconectado / Offline</text><text fill="#000000" font-family="Helvetica" font-size="12" lengthAdjust="spacing" textLength="196.4414" x="299.57" y="166.7324">entry / RegistrarStatus("Offline")</text><text fill="#000000" font-family="Helvetica" font-size="12" lengthAdjust="spacing" textLength="155.8125" x="299.57" y="180.7012">entry / CinzarIconeMapa()</text></g><g class="entity" data-entity="c" data-uid="ent0003" id="entity_c"><polygon fill="#F1F1F1" points="320.79,406.7669,332.79,418.7669,320.79,430.7669,308.79,418.7669,320.79,406.7669" style="stroke:#181818;stroke-width:0.5;"/></g><g id="Validando"><rect fill="#FFFFE0" height="64.2344" rx="12.5" ry="12.5" style="stroke:#FF0000;stroke-width:0.5;" width="225.5879" x="7" y="265.5269"/><line style="stroke:#FF0000;stroke-width:0.5;" x1="7" x2="232.5879" y1="291.8237" y2="291.8237"/><text fill="#000000" font-family="Helvetica" font-size="14" lengthAdjust="spacing" textLength="121.5635" x="59.0122" y="283.522">Validando Pacote</text><text fill="#000000" font-family="Helvetica" font-size="12" lengthAdjust="spacing" textLength="150.2988" x="12" y="307.9624">entry / DecodificarJSON()</text><text fill="#000000" font-family="Helvetica" font-size="12" lengthAdjust="spacing" textLength="205.5879" x="12" y="321.9312">entry / VerificarAssinaturaDigital()</text></g><path d="M242.52,507.7669 L557.07,507.7669 A12.5,12.5 0 0 1 569.57,520.2669 L569.57,553.0325 L230.02,553.0325 L230.02,520.2669 A12.5,12.5 0 0 1 242.52,507.7669" fill="#FFFFE0"/><rect fill="none" height="234.7613" rx="12.5" ry="12.5" style="stroke:#FF0000;stroke-width:0.5;" width="339.55" x="230.02" y="507.7669"/><line style="stroke:#FF0000;stroke-width:0.5;" x1="230.02" x2="569.57" y1="553.0325" y2="553.0325"/><line style="stroke:#FF0000;stroke-width:0.5;" x1="230.02" x2="569.57" y1="534.0638" y2="534.0638"/><text fill="#000000" font-family="Helvetica" font-size="14" lengthAdjust="spacing" textLength="204.21" x="297.69" y="525.762">Monitorando (Ve&#237;culo Online)</text><text fill="#000000" font-family="Helvetica" font-size="12" lengthAdjust="spacing" textLength="145.0957" x="235.02" y="545.2024">exit / SalvarLogSessao()</text><g id="Monitorando.Movimento"><rect fill="#FFFFE0" height="64.2344" rx="12.5" ry="12.5" style="stroke:#FF0000;stroke-width:0.5;" width="207.0957" x="242.02" y="565.0325"/><line style="stroke:#FF0000;stroke-width:0.5;" x1="242.02" x2="449.1157" y1="591.3294" y2="591.3294"/><text fill="#000000" font-family="Helvetica" font-size="14" lengthAdjust="spacing" textLength="104.9316" x="293.102" y="583.0276">Em Movimento</text><text fill="#000000" font-family="Helvetica" font-size="12" lengthAdjust="spacing" textLength="184.6465" x="247.02" y="607.468">entry / AtualizarVetorDirecao()</text><text fill="#000000" font-family="Helvetica" font-size="12" lengthAdjust="spacing" textLength="187.0957" x="247.02" y="621.4368">do / CalcularVelocidadeMedia()</text></g><g id="Monitorando.Parado"><rect fill="#FFFFE0" height="50.2656" rx="12.5" ry="12.5" style="stroke:#FF0000;stroke-width:0.5;" width="209.0879" x="316.02" y="682.2625"/><line style="stroke:#FF0000;stroke-width:0.5;" x1="316.02" x2="525.1079" y1="708.5594" y2="708.5594"/><text fill="#000000" font-family="Helvetica" font-size="14" lengthAdjust="spacing" textLength="87.9443" x="376.5918" y="700.2576">Parado / Idle</text><text fill="#000000" font-family="Helvetica" font-size="12" lengthAdjust="spacing" textLength="189.0879" x="321.02" y="724.698">entry / AtualizarTempoParado()</text></g><ellipse cx="546.57" cy="597.1525" fill="#222222" rx="10" ry="10" style="stroke:#222222;stroke-width:1;"/><!--link *start*Monitorando to Parado--><g class="link" data-entity-1=".start.Monitorando" data-entity-2="Parado" data-source-line="46" data-uid="lnk9" id="link_.start.Monitorando_Parado"><path d="M545.56,607.5025 C543.58,621.5725 537.94,648.2125 522.57,664.2625 C515.94,671.1825 513.2047,674.0099 504.7447,678.8999" fill="none" id="*start*Monitorando-to-Parado" style="stroke:#000000;stroke-width:1;"/><polygon fill="#000000" points="499.55,681.9025,509.3437,680.8617,503.8789,679.4003,505.3403,673.9355,499.55,681.9025" style="stroke:#000000;stroke-width:1;"/></g><!--link Parado to Movimento--><g class="link" data-entity-1="Parado" data-entity-2="Movimento" data-source-line="47" data-uid="lnk10" id="link_Parado_Movimento"><path d="M414.27,681.8725 C410.73,670.7325 405.57,657.7325 398.57,647.2625 C394.45,641.1125 393.5953,639.5015 388.2853,634.0215" fill="none" id="Parado-to-Movimento" style="stroke:#000000;stroke-width:1;"/><polygon fill="#000000" points="384.11,629.7125,387.5003,638.9594,387.5894,633.3033,393.2456,633.3924,384.11,629.7125" style="stroke:#000000;stroke-width:1;"/><text fill="#000000" font-family="sans-serif" font-size="13" lengthAdjust="spacing" textLength="109.2559" x="408.57" y="660.3294">[Velocidade &gt; 0]</text></g><!--link Movimento to Parado--><g class="link" data-entity-1="Movimento" data-entity-2="Parado" data-source-line="48" data-uid="lnk11" id="link_Movimento_Parado"><path d="M282,629.6625 C269.71,639.9025 263.19,651.8525 272.57,664.2625 C278.97,672.7425 289.9141,678.285 309.9041,684.295" fill="none" id="Movimento-to-Parado" style="stroke:#000000;stroke-width:1;"/><polygon fill="#000000" points="315.65,686.0225,308.1828,679.6006,310.8617,684.5829,305.8794,687.2618,315.65,686.0225" style="stroke:#000000;stroke-width:1;"/><text fill="#000000" font-family="sans-serif" font-size="13" lengthAdjust="spacing" textLength="120.1484" x="273.57" y="660.3294">[Velocidade == 0]</text></g><g id="Alerta"><rect fill="#FFFFE0" height="78.2031" rx="12.5" ry="12.5" style="stroke:#FF0000;stroke-width:0.5;" width="297.4473" x="374.07" y="819.5269"/><line style="stroke:#FF0000;stroke-width:0.5;" x1="374.07" x2="671.5173" y1="845.8237" y2="845.8237"/><text fill="#000000" font-family="Helvetica" font-size="14" lengthAdjust="spacing" textLength="169.5723" x="438.0075" y="837.522">EM ALERTA (Seguran&#231;a)</text><text fill="#000000" font-family="Helvetica" font-size="12" lengthAdjust="spacing" textLength="199.6406" x="379.07" y="861.9624">entry / DispararNotificacaoPush()</text><text fill="#000000" font-family="Helvetica" font-size="12" lengthAdjust="spacing" textLength="180.8555" x="379.07" y="875.9312">entry / RegistrarIncidenteBD()</text><text fill="#000000" font-family="Helvetica" font-size="12" lengthAdjust="spacing" textLength="277.4473" x="379.07" y="889.8999">do / EnviarPosicaoTempoReal(AltaFrequencia)</text></g><ellipse cx="402.79" cy="53.2969" fill="#222222" rx="10" ry="10" style="stroke:#222222;stroke-width:1;"/><!--link *start* to Desconectado--><g class="link" data-entity-1=".start." data-entity-2="Desconectado" data-source-line="11" data-uid="lnk3" id="link_.start._Desconectado"><path d="M402.79,63.6269 C402.79,77.2169 402.79,97.1069 402.79,117.9369" fill="none" id="*start*-to-Desconectado" style="stroke:#000000;stroke-width:1;"/><polygon fill="#000000" points="402.79,123.9369,406.79,114.9369,402.79,118.9369,398.79,114.9369,402.79,123.9369" style="stroke:#000000;stroke-width:1;"/></g><!--link Desconectado to Validando--><g class="link" data-entity-1="Desconectado" data-entity-2="Validando" data-source-line="19" data-uid="lnk4" id="link_Desconectado_Validando"><path d="M294.09,164.8769 C216.84,172.7169 122.57,188.2969 97.79,218.5269 C86.99,231.7169 88.6769,244.4955 96.2469,259.9955" fill="none" id="Desconectado-to-Validando" style="stroke:#000000;stroke-width:1;"/><polygon fill="#000000" points="98.88,265.3869,98.5246,255.5444,96.6858,260.8941,91.3361,259.0552,98.88,265.3869" style="stroke:#000000;stroke-width:1;"/><text fill="#000000" font-family="sans-serif" font-size="13" lengthAdjust="spacing" textLength="195.9712" x="98.79" y="231.5938">Recebimento de Pacote MQTT</text></g><!--link Validando to c--><g class="link" data-entity-1="Validando" data-entity-2="c" data-source-line="29" data-uid="lnk5" id="link_Validando_c"><path d="M129.79,330.1369 C136.44,346.2869 146.77,364.9769 161.79,376.7669 C207.56,412.6469 275.3507,417.2829 303.4407,417.7229" fill="none" id="Validando-to-c" style="stroke:#000000;stroke-width:1;"/><polygon fill="#000000" points="309.44,417.8169,300.5038,413.6764,304.4406,417.7386,300.3785,421.6754,309.44,417.8169" style="stroke:#000000;stroke-width:1;"/><text fill="#000000" font-family="sans-serif" font-size="13" lengthAdjust="spacing" textLength="131.5996" x="162.79" y="372.8338">Valida&#231;&#227;o Conclu&#237;da</text></g><!--link c to Desconectado--><g class="link" data-entity-1="c" data-entity-2="Desconectado" data-source-line="32" data-uid="lnk6" id="link_c_Desconectado"><path d="M321.59,407.1669 C323.72,382.0069 330.58,316.9469 347.79,265.5269 C356.82,238.5669 368.648,215.1891 380.628,194.1791" fill="none" id="c-to-Desconectado" style="stroke:#000000;stroke-width:1;"/><polygon fill="#000000" points="383.6,188.9669,375.6672,194.8038,381.1233,193.3104,382.6168,198.7665,383.6,188.9669" style="stroke:#000000;stroke-width:1;"/><text fill="#000000" font-family="sans-serif" font-size="13" lengthAdjust="spacing" textLength="109.4399" x="348.79" y="302.2138">[Pacote Inv&#225;lido]</text></g><!--link c to Monitorando--><g class="link" data-entity-1="c" data-entity-2="Monitorando" data-source-line="33" data-uid="lnk7" id="link_c_Monitorando"><path d="M323.99,428.0269 C329.56,442.4369 339.5365,468.2605 352.5065,501.8105" fill="none" id="c-to-Monitorando" style="stroke:#000000;stroke-width:1;"/><polygon fill="#000000" points="354.67,507.4069,355.1557,497.57,352.8671,502.7432,347.6939,500.4546,354.67,507.4069" style="stroke:#000000;stroke-width:1;"/><text fill="#000000" font-family="sans-serif" font-size="13" lengthAdjust="spacing" textLength="98.5664" x="343.79" y="473.8338">[Pacote V&#225;lido]</text></g><!--link Monitorando to Alerta--><g class="link" data-entity-1="Monitorando" data-entity-2="Alerta" data-source-line="54" data-uid="lnk12" id="link_Monitorando_Alerta"><path d="M293.55,742.6369 C289.32,758.7069 290.89,774.7569 301.79,789.5269 C319.56,813.5869 340.0682,827.3475 368.2082,837.6875" fill="none" id="Monitorando-to-Alerta" style="stroke:#000000;stroke-width:1;"/><polygon fill="#000000" points="373.84,839.7569,366.7719,832.8982,369.1468,838.0324,364.0126,840.4073,373.84,839.7569" style="stroke:#000000;stroke-width:1;"/><text fill="#000000" font-family="sans-serif" font-size="13" lengthAdjust="spacing" textLength="176.6426" x="302.79" y="785.5938">[Flag de Viola&#231;&#227;o == True]</text></g><!--link Alerta to Monitorando--><g class="link" data-entity-1="Alerta" data-entity-2="Monitorando" data-source-line="63" data-uid="lnk13" id="link_Alerta_Monitorando"><path d="M506.05,819.1369 C499.42,804.4169 491.53,787.5569 483.79,772.5269 C478.77,762.7569 476.2846,757.9734 470.8046,747.9334" fill="none" id="Alerta-to-Monitorando" style="stroke:#000000;stroke-width:1;"/><polygon fill="#000000" points="467.93,742.6669,468.7308,752.4831,470.3255,747.0557,475.7529,748.6503,467.93,742.6669" style="stroke:#000000;stroke-width:1;"/><text fill="#000000" font-family="sans-serif" font-size="13" lengthAdjust="spacing" textLength="135.6812" x="492.79" y="785.5938">[Alarme Desarmado]</text></g><!--link Monitorando to Desconectado--><g class="link" data-entity-1="Monitorando" data-entity-2="Desconectado" data-source-line="64" data-uid="lnk14" id="link_Monitorando_Desconectado"><path d="M445.28,507.6669 C466.69,437.0169 483.47,345.3869 462.79,265.5269 C455.58,237.6769 442.7965,214.367 429.0865,193.697" fill="none" id="Monitorando-to-Desconectado" style="stroke:#000000;stroke-width:1;"/><polygon fill="#000000" points="425.77,188.6969,427.4113,198.408,428.5337,192.8636,434.0781,193.9861,425.77,188.6969" style="stroke:#000000;stroke-width:1;"/><text fill="#000000" font-family="sans-serif" font-size="13" lengthAdjust="spacing" textLength="173.5005" x="473.79" y="372.8338">Timeout (Sem sinal &gt; 60s)</text></g><!--link Alerta to Desconectado--><g class="link" data-entity-1="Alerta" data-entity-2="Desconectado" data-source-line="65" data-uid="lnk15" id="link_Alerta_Desconectado"><path d="M605,819.1269 C616.94,810.7169 628.11,800.8769 636.79,789.5269 C682.65,729.6269 682.79,701.5769 682.79,626.1469 C682.79,296.6469 682.79,296.6469 682.79,296.6469 C682.79,216.7069 596.0608,183.7432 517.3508,169.2532" fill="none" id="Alerta-to-Desconectado" style="stroke:#000000;stroke-width:1;"/><polygon fill="#000000" points="511.45,168.1669,519.5771,173.7302,516.3674,169.0721,521.0255,165.8624,511.45,168.1669" style="stroke:#000000;stroke-width:1;"/><text fill="#000000" font-family="sans-serif" font-size="13" lengthAdjust="spacing" textLength="173.5005" x="683.79" y="423.3338">Timeout (Sem sinal &gt; 60s)</text></g><!--SRC=[ZLN1RXiv3BtFLn2vr5uWs9xsKBG19hQ3PX4dhcqOM0GvS3Mq8rIMKadZPBlennGzzDHZly0_LbAQiSTE5jXBaf4UARx7H-OL39nTwbNjSVjz-yt1HeSQJH4-Qlk07jSG8aQ2Vmk0SrGVLzxLjXeuupnSwTLz_8kCSOzowtn5FjzCgUAJqdltc0_E3SVoqOMpyHhN1E_9R2XgXSMNeeWw6eAXnXK_Y50HZBTVFzNQfhz7N47b0fp2Z4kf0rGE5hJzeMhZeBVGGShcivbRnaVqr2-Asz_kuFJq38OKbBEa945HlEBlfROw4-M8dFa01SgjGQJuIG7gW9QFta1lfct49u8PYLBz8ejoSX3vEzmibqPREW4CXqyVuDu0sUZ_OVoKLZf4ZpuJwvsq2Vh_5J7GzZFwIxaQumFs-i9gxj66pEemJYHOeD5LGsDAYlxMQqxcHDW9AiSinX_cSqapSStva5GIjM6fuErRTU-qehCpmJMgxHAtOknVoecJ37jKjv2M3h_aAhra6_W_PpVNJESbr89ynfGXi2SYTs2eLpgY4Vxx2A6hE2wVv2wpkvMfjpygpFqNPjpQGZtp1mVUDefSsitsA-TmTmrkxAoEpZTrjR152zgBCd3h1nTOnjvxJTnODl7UBTqilPs3Rwoql9_KwY9auW3IZoP-j6R09lUlWJTV2RNxwaXNHXvcpPPP4ESTQayA7QjsZ4_s7Q3XYWHhd685AnfJfR61TokPy6P88PULoNtE9mdJNBvGn9nOdNmjdHDmnxqoSJncv2s6TDTEyVFSkIVxyc_t9SCPlBuxuhTFSeHzzqx0NxX_PRCK20AAMqGH2kr6o3sjqlRWEtfALKfo0jcIG1ksemVYZLSSceMUT6GDPcWswA_SQaOXf1OKHzJvwTdkwKwEWtp2f3Ja8mgJ2uChYLjePng_CwEvhwdhIGRaaDQ7ep6KLwFflEIzblQPtNx7RC06k7jYDwWw24z_xM8QHNRHf0xtJECPTBVKBYshB1AT3xkuv9kHtMZq4nSubqksc1AFSsaYNdZwL1F7Oj9eAiQrlFu9vjnELyVGvdfXCaksxresME3VABDvhDxHo3SvHGd-LyVRnR21_dWT-jr7_c_CBm00]--></g></svg>