<svg xmlns="http://www.w3.org/2000/svg" xmlns:xlink="http://www.w3.org/1999/xlink" contentStyleType="text/css" data-diagram-type="CLASS" height="1028px" preserveAspectRatio="none" style="width:550px;height:1028px;background:#FFFFFF;" version="1.1" viewBox="0 0 550 1028" width="550px" zoomAndPan="magnify"><title>Diagrama de Classes - Guardi&#227;o Veicular</title><defs/><g><g class="title" data-source-line="1"><text fill="#000000" font-family="sans-serif" font-size="14" font-weight="bold" lengthAdjust="spacing" textLength="321.2275" x="107.8052" y="22.9951">Diagrama de Classes - Guardi&#227;o Veicular</text></g><!--class Usuario--><g class="entity" data-entity="Usuario" data-source-line="12" data-uid="ent0002" id="entity_Usuario"><rect fill="#FFFFFF" height="210.9688" rx="2.5" ry="2.5" style="stroke:#000000;stroke-width:0.5;" width="264.3623" x="106" y="44.2969"/><ellipse cx="207.3291" cy="60.2969" fill="#ADD1B2" rx="11" ry="11" style="stroke:#181818;stroke-width:1;"/><path d="M210.2979,65.9375 Q209.7197,66.2344 209.0791,66.375 Q208.4385,66.5313 207.7354,66.5313 Q205.2354,66.5313 203.9072,64.8906 Q202.5947,63.2344 202.5947,60.1094 Q202.5947,56.9844 203.9072,55.3281 Q205.2354,53.6719 207.7354,53.6719 Q208.4385,53.6719 209.0791,53.8281 Q209.7354,53.9844 210.2979,54.2813 L210.2979,57 Q209.6729,56.4219 209.0791,56.1563 Q208.4854,55.875 207.8604,55.875 Q206.5166,55.875 205.8291,56.9531 Q205.1416,58.0156 205.1416,60.1094 Q205.1416,62.2031 205.8291,63.2813 Q206.5166,64.3438 207.8604,64.3438 Q208.4854,64.3438 209.0791,64.0781 Q209.6729,63.7969 210.2979,63.2188 L210.2979,65.9375 Z " fill="#000000"/><text fill="#000000" font-family="sans-serif" font-size="14" lengthAdjust="spacing" textLength="53.2041" x="227.8291" y="65.1436">Usuario</text><line style="stroke:#000000;stroke-width:0.5;" x1="107" x2="369.3623" y1="76.2969" y2="76.2969"/><rect fill="none" height="6" style="stroke:#C82930;stroke-width:1;" width="6" x="114" y="86.9453"/><text fill="#000000" font-family="sans-serif" font-size="14" lengthAdjust="spacing" textLength="72.3037" x="126" y="93.292">id: Integer</text><rect fill="none" height="6" style="stroke:#C82930;stroke-width:1;" width="6" x="114" y="103.2422"/><text fill="#000000" font-family="sans-serif" font-size="14" lengthAdjust="spacing" textLength="90.6377" x="126" y="109.5889">nome: String</text><rect fill="none" height="6" style="stroke:#C82930;stroke-width:1;" width="6" x="114" y="119.5391"/><text fill="#000000" font-family="sans-serif" font-size="14" lengthAdjust="spacing" textLength="89.5576" x="126" y="125.8857">email: String</text><rect fill="none" height="6" style="stroke:#C82930;stroke-width:1;" width="6" x="114" y="135.8359"/><text fill="#000000" font-family="sans-serif" font-size="14" lengthAdjust="spacing" textLength="128.4541" x="126" y="142.1826">senhaHash: String</text><rect fill="none" height="6" style="stroke:#C82930;stroke-width:1;" width="6" x="114" y="152.1328"/><text fill="#000000" font-family="sans-serif" font-size="14" lengthAdjust="spacing" textLength="108.5342" x="126" y="158.4795">telefone: String</text><rect fill="none" height="6" style="stroke:#C82930;stroke-width:1;" width="6" x="114" y="168.4297"/><text fill="#000000" font-family="sans-serif" font-size="14" lengthAdjust="spacing" textLength="171.7803" x="126" y="174.7764">dataCadastro: DateTime</text><line style="stroke:#000000;stroke-width:1;" x1="107" x2="369.3623" y1="182.0781" y2="182.0781"/><ellipse cx="117" cy="195.7266" fill="#84BE84" rx="3" ry="3" style="stroke:#038048;stroke-width:1;"/><text fill="#000000" font-family="sans-serif" font-size="14" lengthAdjust="spacing" textLength="116.334" x="126" y="199.0732">cadastrar(): void</text><ellipse cx="117" cy="212.0234" fill="#84BE84" rx="3" ry="3" style="stroke:#038048;stroke-width:1;"/><text fill="#000000" font-family="sans-serif" font-size="14" lengthAdjust="spacing" textLength="238.3623" x="126" y="215.3701">autenticar(email, senha): Boolean</text><ellipse cx="117" cy="228.3203" fill="#84BE84" rx="3" ry="3" style="stroke:#038048;stroke-width:1;"/><text fill="#000000" font-family="sans-serif" font-size="14" lengthAdjust="spacing" textLength="162.0732" x="126" y="231.667">recuperarSenha(): void</text><ellipse cx="117" cy="244.6172" fill="#84BE84" rx="3" ry="3" style="stroke:#038048;stroke-width:1;"/><text fill="#000000" font-family="sans-serif" font-size="14" lengthAdjust="spacing" textLength="126.4512" x="126" y="247.9639">editarPerfil(): void</text></g><!--class Veiculo--><g class="entity" data-entity="Veiculo" data-source-line="26" data-uid="ent0003" id="entity_Veiculo"><rect fill="#FFFFFF" height="194.6719" rx="2.5" ry="2.5" style="stroke:#000000;stroke-width:0.5;" width="301.7002" x="87" y="332.2969"/><ellipse cx="208.0474" cy="348.2969" fill="#ADD1B2" rx="11" ry="11" style="stroke:#181818;stroke-width:1;"/><path d="M211.0161,353.9375 Q210.438,354.2344 209.7974,354.375 Q209.1567,354.5313 208.4536,354.5313 Q205.9536,354.5313 204.6255,352.8906 Q203.313,351.2344 203.313,348.1094 Q203.313,344.9844 204.6255,343.3281 Q205.9536,341.6719 208.4536,341.6719 Q209.1567,341.6719 209.7974,341.8281 Q210.4536,341.9844 211.0161,342.2813 L211.0161,345 Q210.3911,344.4219 209.7974,344.1563 Q209.2036,343.875 208.5786,343.875 Q207.2349,343.875 206.5474,344.9531 Q205.8599,346.0156 205.8599,348.1094 Q205.8599,350.2031 206.5474,351.2813 Q207.2349,352.3438 208.5786,352.3438 Q209.2036,352.3438 209.7974,352.0781 Q210.3911,351.7969 211.0161,351.2188 L211.0161,353.9375 Z " fill="#000000"/><text fill="#000000" font-family="sans-serif" font-size="14" lengthAdjust="spacing" textLength="51.1055" x="228.5474" y="353.1436">Veiculo</text><line style="stroke:#000000;stroke-width:0.5;" x1="88" x2="387.7002" y1="364.2969" y2="364.2969"/><rect fill="none" height="6" style="stroke:#C82930;stroke-width:1;" width="6" x="95" y="374.9453"/><text fill="#000000" font-family="sans-serif" font-size="14" lengthAdjust="spacing" textLength="72.3037" x="107" y="381.292">id: Integer</text><rect fill="none" height="6" style="stroke:#C82930;stroke-width:1;" width="6" x="95" y="391.2422"/><text fill="#000000" font-family="sans-serif" font-size="14" lengthAdjust="spacing" textLength="88.5801" x="107" y="397.5889">placa: String</text><rect fill="none" height="6" style="stroke:#C82930;stroke-width:1;" width="6" x="95" y="407.5391"/><text fill="#000000" font-family="sans-serif" font-size="14" lengthAdjust="spacing" textLength="103.1064" x="107" y="413.8857">modelo: String</text><rect fill="none" height="6" style="stroke:#C82930;stroke-width:1;" width="6" x="95" y="423.8359"/><text fill="#000000" font-family="sans-serif" font-size="14" lengthAdjust="spacing" textLength="72.9668" x="107" y="430.1826">cor: String</text><rect fill="none" height="6" style="stroke:#C82930;stroke-width:1;" width="6" x="95" y="440.1328"/><text fill="#000000" font-family="sans-serif" font-size="14" lengthAdjust="spacing" textLength="85.5449" x="107" y="446.4795">ano: Integer</text><rect fill="none" height="6" style="stroke:#C82930;stroke-width:1;" width="6" x="95" y="456.4297"/><text fill="#000000" font-family="sans-serif" font-size="14" lengthAdjust="spacing" textLength="158.9287" x="107" y="462.7764">statusAlarme: Boolean</text><line style="stroke:#000000;stroke-width:1;" x1="88" x2="387.7002" y1="470.0781" y2="470.0781"/><ellipse cx="98" cy="483.7266" fill="#84BE84" rx="3" ry="3" style="stroke:#038048;stroke-width:1;"/><text fill="#000000" font-family="sans-serif" font-size="14" lengthAdjust="spacing" textLength="140.3486" x="107" y="487.0732">ativarAlarme(): void</text><ellipse cx="98" cy="500.0234" fill="#84BE84" rx="3" ry="3" style="stroke:#038048;stroke-width:1;"/><text fill="#000000" font-family="sans-serif" font-size="14" lengthAdjust="spacing" textLength="165.1426" x="107" y="503.3701">desativarAlarme(): void</text><ellipse cx="98" cy="516.3203" fill="#84BE84" rx="3" ry="3" style="stroke:#038048;stroke-width:1;"/><text fill="#000000" font-family="sans-serif" font-size="14" lengthAdjust="spacing" textLength="275.7002" x="107" y="519.667">getUltimaPosicao(): RegistroTelemetria</text></g><!--class Dispositivo--><g class="entity" data-entity="Dispositivo" data-source-line="39" data-uid="ent0004" id="entity_Dispositivo"><rect fill="#FFFFFF" height="162.0781" rx="2.5" ry="2.5" style="stroke:#000000;stroke-width:0.5;" width="208.5195" x="133.5" y="604.2969"/><ellipse cx="195.0952" cy="620.2969" fill="#ADD1B2" rx="11" ry="11" style="stroke:#181818;stroke-width:1;"/><path d="M198.064,625.9375 Q197.4858,626.2344 196.8452,626.375 Q196.2046,626.5313 195.5015,626.5313 Q193.0015,626.5313 191.6733,624.8906 Q190.3608,623.2344 190.3608,620.1094 Q190.3608,616.9844 191.6733,615.3281 Q193.0015,613.6719 195.5015,613.6719 Q196.2046,613.6719 196.8452,613.8281 Q197.5015,613.9844 198.064,614.2813 L198.064,617 Q197.439,616.4219 196.8452,616.1563 Q196.2515,615.875 195.6265,615.875 Q194.2827,615.875 193.5952,616.9531 Q192.9077,618.0156 192.9077,620.1094 Q192.9077,622.2031 193.5952,623.2813 Q194.2827,624.3438 195.6265,624.3438 Q196.2515,624.3438 196.8452,624.0781 Q197.439,623.7969 198.064,623.2188 L198.064,625.9375 Z " fill="#000000"/><text fill="#000000" font-family="sans-serif" font-size="14" lengthAdjust="spacing" textLength="76.8291" x="215.5952" y="625.1436">Dispositivo</text><line style="stroke:#000000;stroke-width:0.5;" x1="134.5" x2="341.0195" y1="636.2969" y2="636.2969"/><rect fill="none" height="6" style="stroke:#C82930;stroke-width:1;" width="6" x="141.5" y="646.9453"/><text fill="#000000" font-family="sans-serif" font-size="14" lengthAdjust="spacing" textLength="72.3037" x="153.5" y="653.292">id: Integer</text><rect fill="none" height="6" style="stroke:#C82930;stroke-width:1;" width="6" x="141.5" y="663.2422"/><text fill="#000000" font-family="sans-serif" font-size="14" lengthAdjust="spacing" textLength="137.1699" x="153.5" y="669.5889">macAddress: String</text><rect fill="none" height="6" style="stroke:#C82930;stroke-width:1;" width="6" x="141.5" y="679.5391"/><text fill="#000000" font-family="sans-serif" font-size="14" lengthAdjust="spacing" textLength="182.5195" x="153.5" y="685.8857">tokenAutenticacao: String</text><rect fill="none" height="6" style="stroke:#C82930;stroke-width:1;" width="6" x="141.5" y="695.8359"/><text fill="#000000" font-family="sans-serif" font-size="14" lengthAdjust="spacing" textLength="166.127" x="153.5" y="702.1826">firmwareVersion: String</text><rect fill="none" height="6" style="stroke:#C82930;stroke-width:1;" width="6" x="141.5" y="712.1328"/><text fill="#000000" font-family="sans-serif" font-size="14" lengthAdjust="spacing" textLength="155.2236" x="153.5" y="718.4795">statusConexao: String</text><line style="stroke:#000000;stroke-width:1;" x1="134.5" x2="341.0195" y1="725.7813" y2="725.7813"/><ellipse cx="144.5" cy="739.4297" fill="#84BE84" rx="3" ry="3" style="stroke:#038048;stroke-width:1;"/><text fill="#000000" font-family="sans-serif" font-size="14" lengthAdjust="spacing" textLength="167.3574" x="153.5" y="742.7764">validarToken(): Boolean</text><ellipse cx="144.5" cy="755.7266" fill="#84BE84" rx="3" ry="3" style="stroke:#038048;stroke-width:1;"/><text fill="#000000" font-family="sans-serif" font-size="14" lengthAdjust="spacing" textLength="155.3125" x="153.5" y="759.0732">atualizarStatus(): void</text></g><!--class RegistroTelemetria--><g class="entity" data-entity="RegistroTelemetria" data-source-line="50" data-uid="ent0005" id="entity_RegistroTelemetria"><rect fill="#FFFFFF" height="178.375" rx="2.5" ry="2.5" style="stroke:#000000;stroke-width:0.5;" width="176.0352" x="7" y="843.2969"/><ellipse cx="26.5813" cy="859.2969" fill="#ADD1B2" rx="11" ry="11" style="stroke:#181818;stroke-width:1;"/><path d="M29.55,864.9375 Q28.9719,865.2344 28.3313,865.375 Q27.6907,865.5313 26.9875,865.5313 Q24.4875,865.5313 23.1594,863.8906 Q21.8469,862.2344 21.8469,859.1094 Q21.8469,855.9844 23.1594,854.3281 Q24.4875,852.6719 26.9875,852.6719 Q27.6907,852.6719 28.3313,852.8281 Q28.9875,852.9844 29.55,853.2813 L29.55,856 Q28.925,855.4219 28.3313,855.1563 Q27.7375,854.875 27.1125,854.875 Q25.7688,854.875 25.0813,855.9531 Q24.3938,857.0156 24.3938,859.1094 Q24.3938,861.2031 25.0813,862.2813 Q25.7688,863.3438 27.1125,863.3438 Q27.7375,863.3438 28.3313,863.0781 Q28.925,862.7969 29.55,862.2188 L29.55,864.9375 Z " fill="#000000"/><text fill="#000000" font-family="sans-serif" font-size="14" lengthAdjust="spacing" textLength="133.8545" x="41.5994" y="864.1436">RegistroTelemetria</text><line style="stroke:#000000;stroke-width:0.5;" x1="8" x2="182.0352" y1="875.2969" y2="875.2969"/><rect fill="none" height="6" style="stroke:#C82930;stroke-width:1;" width="6" x="15" y="885.9453"/><text fill="#000000" font-family="sans-serif" font-size="14" lengthAdjust="spacing" textLength="56.0684" x="27" y="892.292">id: Long</text><rect fill="none" height="6" style="stroke:#C82930;stroke-width:1;" width="6" x="15" y="902.2422"/><text fill="#000000" font-family="sans-serif" font-size="14" lengthAdjust="spacing" textLength="142.2832" x="27" y="908.5889">dataHora: DateTime</text><rect fill="none" height="6" style="stroke:#C82930;stroke-width:1;" width="6" x="15" y="918.5391"/><text fill="#000000" font-family="sans-serif" font-size="14" lengthAdjust="spacing" textLength="112.4854" x="27" y="924.8857">latitude: Double</text><rect fill="none" height="6" style="stroke:#C82930;stroke-width:1;" width="6" x="15" y="934.8359"/><text fill="#000000" font-family="sans-serif" font-size="14" lengthAdjust="spacing" textLength="124.7422" x="27" y="941.1826">longitude: Double</text><rect fill="none" height="6" style="stroke:#C82930;stroke-width:1;" width="6" x="15" y="951.1328"/><text fill="#000000" font-family="sans-serif" font-size="14" lengthAdjust="spacing" textLength="119.6494" x="27" y="957.4795">velocidade: Float</text><rect fill="none" height="6" style="stroke:#C82930;stroke-width:1;" width="6" x="15" y="967.4297"/><text fill="#000000" font-family="sans-serif" font-size="14" lengthAdjust="spacing" textLength="150.0352" x="27" y="973.7764">portaAberta: Boolean</text><rect fill="none" height="6" style="stroke:#C82930;stroke-width:1;" width="6" x="15" y="983.7266"/><text fill="#000000" font-family="sans-serif" font-size="14" lengthAdjust="spacing" textLength="116.2383" x="27" y="990.0732">ignicao: Boolean</text><line style="stroke:#000000;stroke-width:1;" x1="8" x2="182.0352" y1="997.375" y2="997.375"/><ellipse cx="18" cy="1011.0234" fill="#84BE84" rx="3" ry="3" style="stroke:#038048;stroke-width:1;"/><text fill="#000000" font-family="sans-serif" font-size="14" lengthAdjust="spacing" textLength="136.2061" x="27" y="1014.3701">salvarDados(): void</text></g><!--class Alerta--><g class="entity" data-entity="Alerta" data-source-line="62" data-uid="ent0006" id="entity_Alerta"><rect fill="#FFFFFF" height="162.0781" rx="2.5" ry="2.5" style="stroke:#000000;stroke-width:0.5;" width="325.8379" x="218" y="851.2969"/><ellipse cx="355.7168" cy="867.2969" fill="#ADD1B2" rx="11" ry="11" style="stroke:#181818;stroke-width:1;"/><path d="M358.6855,872.9375 Q358.1074,873.2344 357.4668,873.375 Q356.8262,873.5313 356.123,873.5313 Q353.623,873.5313 352.2949,871.8906 Q350.9824,870.2344 350.9824,867.1094 Q350.9824,863.9844 352.2949,862.3281 Q353.623,860.6719 356.123,860.6719 Q356.8262,860.6719 357.4668,860.8281 Q358.123,860.9844 358.6855,861.2813 L358.6855,864 Q358.0605,863.4219 357.4668,863.1563 Q356.873,862.875 356.248,862.875 Q354.9043,862.875 354.2168,863.9531 Q353.5293,865.0156 353.5293,867.1094 Q353.5293,869.2031 354.2168,870.2813 Q354.9043,871.3438 356.248,871.3438 Q356.873,871.3438 357.4668,871.0781 Q358.0605,870.7969 358.6855,870.2188 L358.6855,872.9375 Z " fill="#000000"/><text fill="#000000" font-family="sans-serif" font-size="14" lengthAdjust="spacing" textLength="41.9043" x="376.2168" y="872.1436">Alerta</text><line style="stroke:#000000;stroke-width:0.5;" x1="219" x2="542.8379" y1="883.2969" y2="883.2969"/><rect fill="none" height="6" style="stroke:#C82930;stroke-width:1;" width="6" x="226" y="893.9453"/><text fill="#000000" font-family="sans-serif" font-size="14" lengthAdjust="spacing" textLength="56.0684" x="238" y="900.292">id: Long</text><rect fill="none" height="6" style="stroke:#C82930;stroke-width:1;" width="6" x="226" y="910.2422"/><text fill="#000000" font-family="sans-serif" font-size="14" lengthAdjust="spacing" textLength="299.8379" x="238" y="916.5889">tipo: Enum {VIBRACAO, PORTA, INVASAO}</text><rect fill="none" height="6" style="stroke:#C82930;stroke-width:1;" width="6" x="226" y="926.5391"/><text fill="#000000" font-family="sans-serif" font-size="14" lengthAdjust="spacing" textLength="142.2832" x="238" y="932.8857">dataHora: DateTime</text><rect fill="none" height="6" style="stroke:#C82930;stroke-width:1;" width="6" x="226" y="942.8359"/><text fill="#000000" font-family="sans-serif" font-size="14" lengthAdjust="spacing" textLength="143.9375" x="238" y="949.1826">visualizado: Boolean</text><rect fill="none" height="6" style="stroke:#C82930;stroke-width:1;" width="6" x="226" y="959.1328"/><text fill="#000000" font-family="sans-serif" font-size="14" lengthAdjust="spacing" textLength="117.9268" x="238" y="965.4795">descricao: String</text><line style="stroke:#000000;stroke-width:1;" x1="219" x2="542.8379" y1="972.7813" y2="972.7813"/><ellipse cx="229" cy="986.4297" fill="#84BE84" rx="3" ry="3" style="stroke:#038048;stroke-width:1;"/><text fill="#000000" font-family="sans-serif" font-size="14" lengthAdjust="spacing" textLength="175.082" x="238" y="989.7764">marcarComoVisto(): void</text><ellipse cx="229" cy="1002.7266" fill="#84BE84" rx="3" ry="3" style="stroke:#038048;stroke-width:1;"/><text fill="#000000" font-family="sans-serif" font-size="14" lengthAdjust="spacing" textLength="172.0674" x="238" y="1006.0732">enviarNotificacao(): void</text></g><!--link Usuario to Veiculo--><g class="link" data-entity-1="Usuario" data-entity-2="Veiculo" data-source-line="75" data-uid="lnk7" id="link_Usuario_Veiculo"><path codeLine="75" d="M238,255.4969 C238,280.5869 238,307.2669 238,331.9769" fill="none" id="Usuario-Veiculo" style="stroke:#000000;stroke-width:1;"/><polygon fill="#000000" points="243,298.8633,245.9389,289.8182,240.0611,289.8182,243,298.8633" style="stroke:#000000;stroke-width:1;"/><text fill="#000000" font-family="sans-serif" font-size="13" lengthAdjust="spacing" textLength="41.6025" x="252" y="298.3638">possui</text><text fill="#000000" font-family="sans-serif" font-size="13" lengthAdjust="spacing" textLength="8.271" x="229.7282" y="275.1749">1</text><text fill="#000000" font-family="sans-serif" font-size="13" lengthAdjust="spacing" textLength="23.0356" x="214.1678" y="321.3263">0..*</text></g><!--link Veiculo to Dispositivo--><g class="link" data-entity-1="Veiculo" data-entity-2="Dispositivo" data-source-line="76" data-uid="lnk8" id="link_Veiculo_Dispositivo"><path codeLine="76" d="M238,527.3569 C238,552.6869 238,579.7169 238,604.0869" fill="none" id="Veiculo-Dispositivo" style="stroke:#000000;stroke-width:1;"/><polygon fill="#000000" points="243,570.8633,245.9389,561.8182,240.0611,561.8182,243,570.8633" style="stroke:#000000;stroke-width:1;"/><text fill="#000000" font-family="sans-serif" font-size="13" lengthAdjust="spacing" textLength="49.0991" x="252" y="570.3638">cont&#233;m</text><text fill="#000000" font-family="sans-serif" font-size="13" lengthAdjust="spacing" textLength="8.271" x="229.7272" y="547.156">1</text><text fill="#000000" font-family="sans-serif" font-size="13" lengthAdjust="spacing" textLength="8.271" x="229.6772" y="593.2555">1</text></g><!--reverse link Dispositivo to RegistroTelemetria--><g class="link" data-entity-1="Dispositivo" data-entity-2="RegistroTelemetria" data-source-line="77" data-uid="lnk9" id="link_Dispositivo_RegistroTelemetria"><path codeLine="77" d="M185.1294,776.8798 C170.7894,801.4398 161,818.2269 146.37,843.2769" fill="none" id="Dispositivo-backto-RegistroTelemetria" style="stroke:#000000;stroke-width:1;"/><polygon fill="#000000" points="191.18,766.5169,184.7004,769.6814,185.1294,776.8798,191.609,773.7152,191.18,766.5169" style="stroke:#000000;stroke-width:1;"/><polygon fill="#000000" points="173.4793,809.1814,180.5774,802.8515,175.5012,799.8882,173.4793,809.1814" style="stroke:#000000;stroke-width:1;"/><text fill="#000000" font-family="sans-serif" font-size="13" lengthAdjust="spacing" textLength="29.561" x="185" y="809.3638">gera</text><text fill="#000000" font-family="sans-serif" font-size="13" lengthAdjust="spacing" textLength="8.271" x="178.6873" y="786.4878">1</text><text fill="#000000" font-family="sans-serif" font-size="13" lengthAdjust="spacing" textLength="23.0356" x="126.6718" y="832.3407">0..*</text></g><!--link Dispositivo to Alerta--><g class="link" data-entity-1="Dispositivo" data-entity-2="Alerta" data-source-line="78" data-uid="lnk10" id="link_Dispositivo_Alerta"><path codeLine="78" d="M284.82,766.5169 C300.63,793.5969 318.26,823.8069 334.07,850.8969" fill="none" id="Dispositivo-Alerta" style="stroke:#000000;stroke-width:1;"/><polygon fill="#000000" points="316.5204,809.1815,314.4991,799.8883,309.4227,802.8512,316.5204,809.1815" style="stroke:#000000;stroke-width:1;"/><text fill="#000000" font-family="sans-serif" font-size="13" lengthAdjust="spacing" textLength="48.166" x="323" y="809.3638">dispara</text><text fill="#000000" font-family="sans-serif" font-size="13" lengthAdjust="spacing" textLength="8.271" x="280.6671" y="786.4878">1</text><text fill="#000000" font-family="sans-serif" font-size="13" lengthAdjust="spacing" textLength="23.0356" x="306.0572" y="840.3263">0..*</text></g><!--SRC=[XLJDJXin4BxdAQnS2Yr1xNKFbPQaBKWLH27aFbbFbX6s9xAzeIhYQNge-W1zWhnOnzbD22RG77Ott_nulfbl72aQL2E2seC5fL4D3OI0GGtKjmQyflKlLZEagZ7WUxrtQiXkGNNZOVrx_LVyLXGQeA2EAlRorwPlGLRoNR6TamERFXHALdb4CdpS2tVabk2JAHsd7dfAVcTGtTMU6wU7RDYh-rkAkB6KtlDz2ywDUBNkx3NwVVGn5JWO37OanfvSHSjKay2zNdlQZTJdYRjJ1ufqeIvSn1fzXpYsMAZhAE5r1w4mCnaMqDt2EOJR38zeSC4kJw4XmX0qXEYvK2E8E2NR4fJYqkk3gbex-AFZGgsOT8T34z55giImgUIaFLoSpfWDWklyF5RD4YN-Efcp9AWfWX-ZNv3PcHwtRMcd_5PRbj9bo4XPrcWu0qKB6GAEysmXGcn2ARfApTwdiUi6H5g1RrqoBXh36zOQuus9P67CGPh6oJp1cbBhfp8TYr8SF74VKLYAfoHyYx-5gjHQP1xoWVCTkd8x8Zalio_8stlmE4CVY5qkeqqZPB7mHnwvRSGA36dmqtJEqOkXIxZOVyhGDvbUZlObzMSil_CpZPwpXroVoaYtOwDbKYDkvcO7I-WXV2MYgAJaPFXg6E9MGkmZb7EKPpPpHRMZJUiEIY60aM6FGFC1VgL92L_Z56afMR-ungg7sSNPf1oMLoTgV3MPbYVgud9MNfTNZ__ZlxddKfDrNc6IOkMfUcrs5hoixP0jpsG8dE-aMn7uIuwqQAMppwwzpIOeUoUo0IlwukugsrvY_Kzz0LJ_u-df-_vkXmjfT0WDgS-zBRHrbDU-sWjPLXVNVwouxkF9x_rJuWCAAcJBF1m8Uuhgvb8eBIwGdFy1]--></g></svg>